<?xml version="1.0" encoding="UTF-8" standalone="no"?><!DOCTYPE svg PUBLIC "-//W3C//DTD SVG 1.1//EN" "http://www.w3.org/Graphics/SVG/1.1/DTD/svg11.dtd"><svg width="100%" height="100%" viewBox="0 0 2550 1650" version="1.1" xmlns="http://www.w3.org/2000/svg" xmlns:xlink="http://www.w3.org/1999/xlink" xml:space="preserve" xmlns:serif="http://www.serif.com/" style="fill-rule:evenodd;clip-rule:evenodd;stroke-linecap:round;stroke-linejoin:round;stroke-miterlimit:1.5;"><g><ellipse cx="568.711" cy="1441.173" rx="214.149" ry="97.128" style="fill:#fff;stroke:#000;stroke-width:12.5px;"/><g transform="matrix(66.666667,0,0,66.666667,735.865795,1468.002964)"></g><text x="397.65px" y="1468.003px" style="font-family:'TrebuchetMS-Bold', 'Trebuchet MS', sans-serif;font-weight:700;font-size:66.667px;">Reclaiming</text></g><g><ellipse cx="1271.424" cy="263.939" rx="214.149" ry="97.128" style="fill:#fff;stroke:#000;stroke-width:12.5px;"/><g transform="matrix(66.666667,0,0,66.666667,1327.087675,290.768922)"></g><text x="1211.853px" y="290.769px" style="font-family:'TrebuchetMS-Bold', 'Trebuchet MS', sans-serif;font-weight:700;font-size:66.667px;">Idle</text></g><g><ellipse cx="1271.424" cy="553.713" rx="214.149" ry="97.128" style="fill:#fff;stroke:#000;stroke-width:12.5px;"/><g transform="matrix(66.666667,0,0,66.666667,1363.887805,580.542858)"></g><text x="1175.053px" y="580.543px" style="font-family:'TrebuchetMS-Bold', 'Trebuchet MS', sans-serif;font-weight:700;font-size:66.667px;">Ready</text></g><g><ellipse cx="1271.424" cy="843.487" rx="214.149" ry="97.128" style="fill:#fff;stroke:#000;stroke-width:12.5px;"/><g transform="matrix(66.666667,0,0,66.666667,1395.235462,870.316794)"></g><text x="1143.706px" y="870.317px" style="font-family:'TrebuchetMS-Bold', 'Trebuchet MS', sans-serif;font-weight:700;font-size:66.667px;">Running</text></g><g><ellipse cx="1974.136" cy="1151.399" rx="214.149" ry="97.128" style="fill:#fff;stroke:#000;stroke-width:12.5px;"/><g transform="matrix(66.666667,0,0,66.666667,2044.041977,1178.229028)"></g><text x="1900.325px" y="1178.229px" style="font-family:'TrebuchetMS-Bold', 'Trebuchet MS', sans-serif;font-weight:700;font-size:66.667px;">Slow</text></g><g><ellipse cx="568.711" cy="1133.261" rx="214.149" ry="97.128" style="fill:#fff;stroke:#000;stroke-width:12.5px;"/><g transform="matrix(66.666667,0,0,66.666667,727.418529,1160.09073)"></g><text x="406.097px" y="1160.091px" style="font-family:'TrebuchetMS-Bold', 'Trebuchet MS', sans-serif;font-weight:700;font-size:66.667px;">Exhausted</text></g><g><ellipse cx="1271.424" cy="1441.173" rx="214.149" ry="97.128" style="fill:#fff;stroke:#000;stroke-width:12.5px;"/><g transform="matrix(66.666667,0,0,66.666667,1333.060982,1468.002964)"></g><text x="1205.88px" y="1468.003px" style="font-family:'TrebuchetMS-Bold', 'Trebuchet MS', sans-serif;font-weight:700;font-size:66.667px;">Halt</text></g><path d="M1287.5,125.106l-12.5,25l-12.5,-25l25,0Z"/><path d="M1275,40.106l0,90" style="fill:none;stroke:#000;stroke-width:4.17px;"/><path d="M1287.5,417.34l-12.5,25l-12.5,-25l25,0Z"/><path d="M1275,361.067l0,61.274" style="fill:none;stroke:#000;stroke-width:4.17px;"/><path d="M581.211,1300.662l-12.5,25l-12.5,-25l25,0Z"/><path d="M568.711,1244.389l0,61.274" style="fill:none;stroke:#000;stroke-width:4.17px;"/><path d="M1287.5,705.213l-12.5,25l-12.5,-25l25,0Z"/><path d="M1275,648.939l0,61.274" style="fill:none;stroke:#000;stroke-width:4.17px;"/><path d="M1287.269,1302.931l-12.269,25.114l-12.73,-24.884l24.999,-0.231Z"/><path d="M1271.424,940.495c0,0 2.66,288.222 3.392,367.551" style="fill:none;stroke:#000;stroke-width:4.17px;"/><path d="M1023.109,251.775l25.165,12.164l-24.83,12.834l-0.335,-24.998Z"/><path d="M1048.275,843.487c-541.007,-0.428 -522.56,-565.185 -19.998,-579.28" style="fill:none;stroke:#000;stroke-width:4.17px;stroke-linejoin:miter;stroke-miterlimit:10;"/><path d="M809.272,1085.499l-26.413,9.145l8.532,-26.617l17.881,17.472Z"/><path d="M1094.787,908.085c0,0 -94.365,24.042 -170.851,65.532c-40.606,22.027 -100.266,79.731 -127.099,106.722" style="fill:none;stroke:#000;stroke-width:4.17px;stroke-linejoin:miter;stroke-miterlimit:10;"/><path d="M1778.578,1067.849l7.954,26.795l-26.208,-9.714l18.255,-17.081Z"/><path d="M1465.243,894.085c0,0 94.365,24.042 170.851,65.532c41.419,22.468 108.212,90.354 136.773,120.423" style="fill:none;stroke:#000;stroke-width:4.17px;stroke-linejoin:miter;stroke-miterlimit:10;"/><path d="M1516.414,856.299l-24.842,-12.812l25.154,-12.186l-0.313,24.998Z"/><path d="M1974.136,1054.272c0,-106.314 -237.528,-204.937 -462.565,-210.534" style="fill:none;stroke:#000;stroke-width:4.17px;stroke-linejoin:miter;stroke-miterlimit:10;"/><path d="M1536.566,1453.83l-25.183,-12.128l24.812,-12.87l0.371,24.997Z"/><path d="M1491.573,259.787c0,0 768.526,-85.13 778.108,486.572c11.674,696.505 20.289,683.914 -738.3,695.046" style="fill:none;stroke:#000;stroke-width:4.17px;stroke-linejoin:miter;stroke-miterlimit:10;"/><path d="M1506.403,1378.259l-27.83,2.592l14.624,-23.82l13.206,21.227Z"/><path d="M1779.532,1193.617c0,0 -220.392,137.111 -283.977,176.669" style="fill:none;stroke:#000;stroke-width:4.17px;stroke-linejoin:miter;stroke-miterlimit:10;"/><path d="M1042.537,1357.101l14.738,23.75l-27.842,-2.459l13.104,-21.29Z"/><path d="M753.085,1193.617c0,0 223.063,137.299 287.157,176.75" style="fill:none;stroke:#000;stroke-width:4.17px;stroke-linejoin:miter;stroke-miterlimit:10;"/><path d="M1033.256,867.492l23.68,14.849l-26.087,10.035l2.407,-24.884Z"/><path d="M354.562,1441.173c-161.451,-11.262 -176.765,-138.586 -175.345,-280.431c3.417,-341.202 727.672,-291.936 857.812,-280.327" style="fill:none;stroke:#000;stroke-width:4.17px;stroke-linejoin:miter;stroke-miterlimit:10;"/><g transform="matrix(50,0,0,50,1497.6957,106.93617)"></g><text x="1306.289px" y="106.936px" style="font-family:'PalatinoLinotype-Roman', 'Palatino Linotype', serif;font-size:50px;">Creation</text><g transform="matrix(50,0,0,50,1751.498868,231.702128)"></g><text x="1524.033px" y="231.702px" style="font-family:'PalatinoLinotype-Roman', 'Palatino Linotype', serif;font-size:50px;">Lonesome</text><g transform="matrix(50,0,0,50,1708.61876,421.234043)"></g><text x="1313.38px" y="421.234px" style="font-family:'PalatinoLinotype-Roman', 'Palatino Linotype', serif;font-size:50px;">Message in queue</text><g transform="matrix(50,0,0,50,1729.263083,713.829787)"></g><text x="1306.778px" y="713.83px" style="font-family:'PalatinoLinotype-Roman', 'Palatino Linotype', serif;font-size:50px;">Processor av<tspan x="1583.999px 1608.999px " y="713.83px 713.83px ">ai</tspan>lable</text><text x="1310.106px" y="1135.106px" style="font-family:'PalatinoLinotype-Roman', 'Palatino Linotype', serif;font-size:50px;">Stop</text><g transform="matrix(50,0,0,50,2033.328261,825)"></g><text x="1610.843px" y="825px" style="font-family:'PalatinoLinotype-Roman', 'Palatino Linotype', serif;font-size:50px;">Processor av<tspan x="1888.065px 1913.065px " y="825px 825px ">ai</tspan>lable</text><g transform="matrix(50,0,0,50,600.375229,861.157227)"></g><text x="177.89px" y="861.157px" style="font-family:'PalatinoLinotype-Roman', 'Palatino Linotype', serif;font-size:50px;">Processor av<tspan x="455.112px 480.112px " y="861.157px 861.157px ">ai</tspan>lable</text><g transform="matrix(1,0,0,1,-1066.94084,567.095717)"><text x="1331.17px" y="697.447px" style="font-family:'PalatinoLinotype-Roman', 'Palatino Linotype', serif;font-size:50px;">Processor</text><g transform="matrix(50,0,0,50,1528.338182,764.902863)"></g><text x="1331.17px" y="764.903px" style="font-family:'PalatinoLinotype-Roman', 'Palatino Linotype', serif;font-size:50px;">av<tspan x="1383.075px 1408.075px " y="764.903px 764.903px ">ai</tspan>lable</text></g><g transform="matrix(1,0,0,1,-41.292802,73.200876)"><text x="733.432px" y="435.423px" style="font-family:'PalatinoLinotype-Roman', 'Palatino Linotype', serif;font-size:50px;">End</text><text x="733.432px" y="502.879px" style="font-family:'PalatinoLinotype-Roman', 'Palatino Linotype', serif;font-size:50px;">of</text><g transform="matrix(50,0,0,50,828.744283,570.335224)"></g><text x="733.432px" y="570.335px" style="font-family:'PalatinoLinotype-Roman', 'Palatino Linotype', serif;font-size:50px;">turn</text></g><g transform="matrix(1,0,0,1,-25.815287,4.420008)"><text x="1495.472px" y="981.614px" style="font-family:'PalatinoLinotype-Roman', 'Palatino Linotype', serif;font-size:50px;">Out of</text><g transform="matrix(50,0,0,50,1594.421869,1049.070323)"></g><text x="1495.472px" y="1049.07px" style="font-family:'PalatinoLinotype-Roman', 'Palatino Linotype', serif;font-size:50px;">time</text></g><g transform="matrix(1,0,0,1,-503.021406,12.600433)"><text x="1495.472px" y="981.614px" style="font-family:'PalatinoLinotype-Roman', 'Palatino Linotype', serif;font-size:50px;">Out of</text><g transform="matrix(50,0,0,50,1682.556635,1049.070323)"></g><text x="1495.472px" y="1049.07px" style="font-family:'PalatinoLinotype-Roman', 'Palatino Linotype', serif;font-size:50px;">memory</text></g><g transform="matrix(50,0,0,50,995.038158,1247.672408)"></g><text x="853.192px" y="1247.672px" style="font-family:'PalatinoLinotype-Roman', 'Palatino Linotype', serif;font-size:50px;">Abuse</text><g transform="matrix(50,0,0,50,1661.353827,1247.672408)"></g><text x="1519.508px" y="1247.672px" style="font-family:'PalatinoLinotype-Roman', 'Palatino Linotype', serif;font-size:50px;">Abuse</text></svg>